<?xml version="1.0"?>
<!DOCTYPE svg PUBLIC '-//W3C//DTD SVG 1.1//EN' 'http://www.w3.org/Graphics/SVG/1.1/DTD/svg11.dtd'>
<svg enable-background="new 0 0 91 91" height="91px" id="Layer_1" version="1.1" viewBox="0 0 91 91"
    width="91px" xml:space="preserve" xmlns="http://www.w3.org/2000/svg"
    xmlns:xlink="http://www.w3.org/1999/xlink">
<style>
    path {
        fill: white;
    }
</style>
    <g><g><g><g><path d="M77.091,11.734c0.336-0.84,0.525-1.754,0.525-2.713c0-4.033-3.281-7.316-7.316-7.316s-7.318,3.283-7.318,7.316      c0,4.035,3.283,7.318,7.318,7.318c1.242,0,2.412-0.313,3.438-0.861c7.602,7.494,11.902,17.664,11.902,28.455      c0,22.059-17.943,40.004-40.002,40.004S5.634,65.992,5.634,43.934c0-8.342,2.627-16.475,7.438-23.223      c0.77,0.275,1.594,0.434,2.457,0.434c4.037,0,7.32-3.281,7.32-7.316s-3.283-7.318-7.32-7.318c-4.033,0-7.316,3.283-7.316,7.318      c0,1.334,0.365,2.582,0.992,3.66c-5.557,7.654-8.596,16.93-8.596,26.445c0,24.828,20.199,45.029,45.029,45.029      c24.828,0,45.027-20.201,45.027-45.029C90.665,31.703,85.755,20.186,77.091,11.734z M68.007,9.021      c0-1.264,1.029-2.291,2.293-2.291s2.291,1.027,2.291,2.291c0,1.266-1.027,2.293-2.291,2.293S68.007,10.287,68.007,9.021z       M15.528,11.535c1.266,0,2.295,1.027,2.295,2.293c0,1.264-1.029,2.291-2.295,2.291c-1.264,0-2.291-1.027-2.291-2.291      C13.237,12.563,14.265,11.535,15.528,11.535z"/><path d="M22.099,31.521c0,2.102,0.895,3.992,2.316,5.328c-0.76,2.271-1.15,4.643-1.15,7.084      c0,12.338,10.037,22.375,22.373,22.375c12.334,0,22.369-10.037,22.369-22.375c0-3.406-0.781-6.734-2.254-9.762      c0.857-1.199,1.369-2.664,1.369-4.246c0-4.035-3.283-7.318-7.32-7.318c-4.035,0-7.316,3.283-7.316,7.318      c0,4.037,3.281,7.322,7.316,7.322c0.602,0,1.184-0.082,1.744-0.219c0.941,2.164,1.436,4.51,1.436,6.904      c0,9.566-7.779,17.35-17.344,17.35c-9.566,0-17.348-7.783-17.348-17.35c0-1.758,0.279-3.465,0.789-5.111      c0.113,0.006,0.225,0.018,0.34,0.018c4.035,0,7.318-3.283,7.318-7.318s-3.283-7.316-7.318-7.316      C25.382,24.205,22.099,27.486,22.099,31.521z M57.511,29.926c0-1.266,1.027-2.293,2.291-2.293c1.266,0,2.295,1.027,2.295,2.293      s-1.029,2.297-2.295,2.297C58.538,32.223,57.511,31.191,57.511,29.926z M31.712,31.521c0,1.266-1.029,2.293-2.293,2.293      c-1.266,0-2.295-1.027-2.295-2.293c0-1.264,1.029-2.291,2.295-2.291C30.683,29.23,31.712,30.258,31.712,31.521z"/><path d="M22.849,52.281c0-4.035-3.283-7.318-7.32-7.318c-4.033,0-7.316,3.283-7.316,7.318s3.283,7.32,7.316,7.32      c0.184,0,0.363-0.016,0.545-0.027c5.762,10.902,17.066,17.809,29.564,17.809c18.443,0,33.447-15.004,33.447-33.449      c0-8.932-3.479-17.33-9.795-23.65c-5.775-5.777-13.297-9.172-21.377-9.711c-0.801-3.172-3.67-5.529-7.088-5.529      c-4.035,0-7.318,3.283-7.318,7.318c0,4.033,3.283,7.316,7.318,7.316c2.883,0,5.373-1.68,6.566-4.105      c6.934,0.418,13.395,3.311,18.344,8.264c5.367,5.371,8.324,12.508,8.324,20.098c0,15.674-12.75,28.424-28.422,28.424      c-10.518,0-20.035-5.758-24.975-14.867C22.011,56.162,22.849,54.318,22.849,52.281z M40.825,14.652      c-1.264,0-2.293-1.027-2.293-2.291c0-1.266,1.029-2.293,2.293-2.293c1.266,0,2.293,1.027,2.293,2.293      C43.118,13.625,42.091,14.652,40.825,14.652z M13.237,52.281c0-1.266,1.027-2.293,2.291-2.293c1.266,0,2.295,1.027,2.295,2.293      s-1.029,2.295-2.295,2.295C14.265,54.576,13.237,53.547,13.237,52.281z"/></g></g></g></g></svg>